<svg xmlns="http://www.w3.org/2000/svg" xmlns:xlink="http://www.w3.org/1999/xlink" contentStyleType="text/css" height="669px" preserveAspectRatio="none" style="width:521px;height:669px;background:#FFFFFF;" version="1.1" viewBox="0 0 521 669" width="521px" zoomAndPan="magnify"><defs/><g><!--class Form--><g id="elem_Form"><rect codeLine="8" fill="#F1F1F1" height="64.2969" id="Form" rx="2.5" ry="2.5" style="stroke:#181818;stroke-width:0.5;" width="123" x="19" y="80.34"/><ellipse cx="59.2" cy="96.34" fill="#ADD1B2" rx="11" ry="11" style="stroke:#181818;stroke-width:1.0;"/><path d="M62.1688,101.9806 Q61.5906,102.2775 60.95,102.4181 Q60.3094,102.5744 59.6063,102.5744 Q57.1063,102.5744 55.7781,100.9338 Q54.4656,99.2775 54.4656,96.1525 Q54.4656,93.0275 55.7781,91.3713 Q57.1063,89.715 59.6063,89.715 Q60.3094,89.715 60.95,89.8713 Q61.6063,90.0275 62.1688,90.3244 L62.1688,93.0431 Q61.5438,92.465 60.95,92.1994 Q60.3563,91.9181 59.7313,91.9181 Q58.3875,91.9181 57.7,92.9963 Q57.0125,94.0588 57.0125,96.1525 Q57.0125,98.2463 57.7,99.3244 Q58.3875,100.3869 59.7313,100.3869 Q60.3563,100.3869 60.95,100.1213 Q61.5438,99.84 62.1688,99.2619 L62.1688,101.9806 Z " fill="#000000"/><text fill="#000000" font-family="sans-serif" font-size="14" lengthAdjust="spacing" textLength="35" x="78.8" y="101.1867">Form</text><line style="stroke:#181818;stroke-width:0.5;" x1="20" x2="141" y1="112.34" y2="112.34"/><ellipse cx="30" cy="125.9884" fill="none" rx="3" ry="3" style="stroke:#038048;stroke-width:1.0;"/><text fill="#000000" font-family="sans-serif" font-size="14" lengthAdjust="spacing" textLength="97" x="39" y="129.3351">Ticket : Ticket</text><line style="stroke:#181818;stroke-width:0.5;" x1="20" x2="141" y1="136.6369" y2="136.6369"/></g><!--class Ticket--><g id="elem_Ticket"><rect codeLine="44" fill="#F1F1F1" height="210.9688" id="Ticket" rx="2.5" ry="2.5" style="stroke:#181818;stroke-width:0.5;" width="177" x="177" y="7"/><ellipse cx="240.25" cy="23" fill="#ADD1B2" rx="11" ry="11" style="stroke:#181818;stroke-width:1.0;"/><path d="M243.2188,28.6406 Q242.6406,28.9375 242,29.0781 Q241.3594,29.2344 240.6563,29.2344 Q238.1563,29.2344 236.8281,27.5938 Q235.5156,25.9375 235.5156,22.8125 Q235.5156,19.6875 236.8281,18.0313 Q238.1563,16.375 240.6563,16.375 Q241.3594,16.375 242,16.5313 Q242.6563,16.6875 243.2188,16.9844 L243.2188,19.7031 Q242.5938,19.125 242,18.8594 Q241.4063,18.5781 240.7813,18.5781 Q239.4375,18.5781 238.75,19.6563 Q238.0625,20.7188 238.0625,22.8125 Q238.0625,24.9063 238.75,25.9844 Q239.4375,27.0469 240.7813,27.0469 Q241.4063,27.0469 242,26.7813 Q242.5938,26.5 243.2188,25.9219 L243.2188,28.6406 Z " fill="#000000"/><text fill="#000000" font-family="sans-serif" font-size="14" lengthAdjust="spacing" textLength="42" x="260.75" y="27.8467">Ticket</text><line style="stroke:#181818;stroke-width:0.5;" x1="178" x2="353" y1="39" y2="39"/><ellipse cx="188" cy="52.6484" fill="none" rx="3" ry="3" style="stroke:#038048;stroke-width:1.0;"/><text fill="#000000" font-family="sans-serif" font-size="14" lengthAdjust="spacing" textLength="64" x="197" y="55.9951">Id : string</text><ellipse cx="188" cy="68.9453" fill="none" rx="3" ry="3" style="stroke:#038048;stroke-width:1.0;"/><text fill="#000000" font-family="sans-serif" font-size="14" lengthAdjust="spacing" textLength="129" x="197" y="72.292">Scheduleid : string</text><ellipse cx="188" cy="85.2422" fill="none" rx="3" ry="3" style="stroke:#038048;stroke-width:1.0;"/><text fill="#000000" font-family="sans-serif" font-size="14" lengthAdjust="spacing" textLength="95" x="197" y="88.5889">Seatid : string</text><ellipse cx="188" cy="101.5391" fill="none" rx="3" ry="3" style="stroke:#038048;stroke-width:1.0;"/><text fill="#000000" font-family="sans-serif" font-size="14" lengthAdjust="spacing" textLength="117" x="197" y="104.8857">Pricingtier : short</text><ellipse cx="188" cy="117.8359" fill="none" rx="3" ry="3" style="stroke:#038048;stroke-width:1.0;"/><text fill="#000000" font-family="sans-serif" font-size="14" lengthAdjust="spacing" textLength="151" x="197" y="121.1826">CurrencyCode : string</text><ellipse cx="188" cy="134.1328" fill="none" rx="3" ry="3" style="stroke:#038048;stroke-width:1.0;"/><text fill="#000000" font-family="sans-serif" font-size="14" lengthAdjust="spacing" textLength="120" x="197" y="137.4795">TotalPrice : string</text><ellipse cx="188" cy="150.4297" fill="none" rx="3" ry="3" style="stroke:#038048;stroke-width:1.0;"/><text fill="#000000" font-family="sans-serif" font-size="14" lengthAdjust="spacing" textLength="74" x="197" y="153.7764">Pdf : string</text><ellipse cx="188" cy="166.7266" fill="none" rx="3" ry="3" style="stroke:#038048;stroke-width:1.0;"/><text fill="#000000" font-family="sans-serif" font-size="14" lengthAdjust="spacing" textLength="121" x="197" y="170.0732">Rendered : string</text><ellipse cx="188" cy="183.0234" fill="none" rx="3" ry="3" style="stroke:#038048;stroke-width:1.0;"/><text fill="#000000" font-family="sans-serif" font-size="14" lengthAdjust="spacing" textLength="143" x="197" y="186.3701">Schedule : Schedule</text><ellipse cx="188" cy="199.3203" fill="none" rx="3" ry="3" style="stroke:#038048;stroke-width:1.0;"/><text fill="#000000" font-family="sans-serif" font-size="14" lengthAdjust="spacing" textLength="75" x="197" y="202.667">Seat : Seat</text><line style="stroke:#181818;stroke-width:0.5;" x1="178" x2="353" y1="209.9688" y2="209.9688"/></g><!--class Schedule--><g id="elem_Schedule"><rect codeLine="26" fill="#F1F1F1" height="194.6719" id="Schedule" rx="2.5" ry="2.5" style="stroke:#181818;stroke-width:0.5;" width="149" x="7" y="277.97"/><ellipse cx="45.4" cy="293.97" fill="#ADD1B2" rx="11" ry="11" style="stroke:#181818;stroke-width:1.0;"/><path d="M48.3688,299.6106 Q47.7906,299.9075 47.15,300.0481 Q46.5094,300.2044 45.8063,300.2044 Q43.3063,300.2044 41.9781,298.5637 Q40.6656,296.9075 40.6656,293.7825 Q40.6656,290.6575 41.9781,289.0012 Q43.3063,287.345 45.8063,287.345 Q46.5094,287.345 47.15,287.5012 Q47.8063,287.6575 48.3688,287.9544 L48.3688,290.6731 Q47.7438,290.095 47.15,289.8294 Q46.5563,289.5481 45.9313,289.5481 Q44.5875,289.5481 43.9,290.6262 Q43.2125,291.6887 43.2125,293.7825 Q43.2125,295.8762 43.9,296.9544 Q44.5875,298.0169 45.9313,298.0169 Q46.5563,298.0169 47.15,297.7512 Q47.7438,297.47 48.3688,296.8919 L48.3688,299.6106 Z " fill="#000000"/><text fill="#000000" font-family="sans-serif" font-size="14" lengthAdjust="spacing" textLength="65" x="64.6" y="298.8167">Schedule</text><line style="stroke:#181818;stroke-width:0.5;" x1="8" x2="155" y1="309.97" y2="309.97"/><ellipse cx="18" cy="323.6184" fill="none" rx="3" ry="3" style="stroke:#038048;stroke-width:1.0;"/><text fill="#000000" font-family="sans-serif" font-size="14" lengthAdjust="spacing" textLength="64" x="27" y="326.9651">Id : string</text><ellipse cx="18" cy="339.9153" fill="none" rx="3" ry="3" style="stroke:#038048;stroke-width:1.0;"/><text fill="#000000" font-family="sans-serif" font-size="14" lengthAdjust="spacing" textLength="123" x="27" y="343.262">Begindate : string</text><ellipse cx="18" cy="356.2122" fill="none" rx="3" ry="3" style="stroke:#038048;stroke-width:1.0;"/><text fill="#000000" font-family="sans-serif" font-size="14" lengthAdjust="spacing" textLength="110" x="27" y="359.5589">Enddate : string</text><ellipse cx="18" cy="372.5091" fill="none" rx="3" ry="3" style="stroke:#038048;stroke-width:1.0;"/><text fill="#000000" font-family="sans-serif" font-size="14" lengthAdjust="spacing" textLength="122" x="27" y="375.8557">Begintime : string</text><ellipse cx="18" cy="388.8059" fill="none" rx="3" ry="3" style="stroke:#038048;stroke-width:1.0;"/><text fill="#000000" font-family="sans-serif" font-size="14" lengthAdjust="spacing" textLength="109" x="27" y="392.1526">Endtime : string</text><ellipse cx="18" cy="405.1028" fill="none" rx="3" ry="3" style="stroke:#038048;stroke-width:1.0;"/><text fill="#000000" font-family="sans-serif" font-size="14" lengthAdjust="spacing" textLength="104" x="27" y="408.4495">Movieid : string</text><ellipse cx="18" cy="421.3997" fill="none" rx="3" ry="3" style="stroke:#038048;stroke-width:1.0;"/><text fill="#000000" font-family="sans-serif" font-size="14" lengthAdjust="spacing" textLength="105" x="27" y="424.7464">Roomid : string</text><ellipse cx="18" cy="437.6966" fill="none" rx="3" ry="3" style="stroke:#038048;stroke-width:1.0;"/><text fill="#000000" font-family="sans-serif" font-size="14" lengthAdjust="spacing" textLength="93" x="27" y="441.0432">Movie : Movie</text><ellipse cx="18" cy="453.9934" fill="none" rx="3" ry="3" style="stroke:#038048;stroke-width:1.0;"/><text fill="#000000" font-family="sans-serif" font-size="14" lengthAdjust="spacing" textLength="95" x="27" y="457.3401">Room : Room</text><line style="stroke:#181818;stroke-width:0.5;" x1="8" x2="155" y1="464.6419" y2="464.6419"/></g><!--class Seat--><g id="elem_Seat"><rect codeLine="37" fill="#F1F1F1" height="129.4844" id="Seat" rx="2.5" ry="2.5" style="stroke:#181818;stroke-width:0.5;" width="131" x="383" y="310.57"/><ellipse cx="428.75" cy="326.57" fill="#ADD1B2" rx="11" ry="11" style="stroke:#181818;stroke-width:1.0;"/><path d="M431.7188,332.2106 Q431.1406,332.5075 430.5,332.6481 Q429.8594,332.8044 429.1563,332.8044 Q426.6563,332.8044 425.3281,331.1638 Q424.0156,329.5075 424.0156,326.3825 Q424.0156,323.2575 425.3281,321.6013 Q426.6563,319.945 429.1563,319.945 Q429.8594,319.945 430.5,320.1013 Q431.1563,320.2575 431.7188,320.5544 L431.7188,323.2731 Q431.0938,322.695 430.5,322.4294 Q429.9063,322.1481 429.2813,322.1481 Q427.9375,322.1481 427.25,323.2263 Q426.5625,324.2888 426.5625,326.3825 Q426.5625,328.4763 427.25,329.5544 Q427.9375,330.6169 429.2813,330.6169 Q429.9063,330.6169 430.5,330.3513 Q431.0938,330.07 431.7188,329.4919 L431.7188,332.2106 Z " fill="#000000"/><text fill="#000000" font-family="sans-serif" font-size="14" lengthAdjust="spacing" textLength="31" x="449.25" y="331.4167">Seat</text><line style="stroke:#181818;stroke-width:0.5;" x1="384" x2="513" y1="342.57" y2="342.57"/><ellipse cx="394" cy="356.2184" fill="none" rx="3" ry="3" style="stroke:#038048;stroke-width:1.0;"/><text fill="#000000" font-family="sans-serif" font-size="14" lengthAdjust="spacing" textLength="64" x="403" y="359.5651">Id : string</text><ellipse cx="394" cy="372.5153" fill="none" rx="3" ry="3" style="stroke:#038048;stroke-width:1.0;"/><text fill="#000000" font-family="sans-serif" font-size="14" lengthAdjust="spacing" textLength="105" x="403" y="375.862">Roomid : string</text><ellipse cx="394" cy="388.8122" fill="none" rx="3" ry="3" style="stroke:#038048;stroke-width:1.0;"/><text fill="#000000" font-family="sans-serif" font-size="14" lengthAdjust="spacing" textLength="92" x="403" y="392.1589">Name : string</text><ellipse cx="394" cy="405.1091" fill="none" rx="3" ry="3" style="stroke:#038048;stroke-width:1.0;"/><text fill="#000000" font-family="sans-serif" font-size="14" lengthAdjust="spacing" textLength="105" x="403" y="408.4557">Pricetier : short</text><ellipse cx="394" cy="421.4059" fill="none" rx="3" ry="3" style="stroke:#038048;stroke-width:1.0;"/><text fill="#000000" font-family="sans-serif" font-size="14" lengthAdjust="spacing" textLength="93" x="403" y="424.7526">Room : string</text><line style="stroke:#181818;stroke-width:0.5;" x1="384" x2="513" y1="432.0544" y2="432.0544"/></g><!--class Room--><g id="elem_Room"><rect codeLine="19" fill="#F1F1F1" height="129.4844" id="Room" rx="2.5" ry="2.5" style="stroke:#181818;stroke-width:0.5;" width="135" x="14" y="532.65"/><ellipse cx="56.9" cy="548.65" fill="#ADD1B2" rx="11" ry="11" style="stroke:#181818;stroke-width:1.0;"/><path d="M59.8688,554.2906 Q59.2906,554.5875 58.65,554.7281 Q58.0094,554.8844 57.3063,554.8844 Q54.8063,554.8844 53.4781,553.2438 Q52.1656,551.5875 52.1656,548.4625 Q52.1656,545.3375 53.4781,543.6813 Q54.8063,542.025 57.3063,542.025 Q58.0094,542.025 58.65,542.1813 Q59.3063,542.3375 59.8688,542.6344 L59.8688,545.3531 Q59.2438,544.775 58.65,544.5094 Q58.0563,544.2281 57.4313,544.2281 Q56.0875,544.2281 55.4,545.3063 Q54.7125,546.3688 54.7125,548.4625 Q54.7125,550.5563 55.4,551.6344 Q56.0875,552.6969 57.4313,552.6969 Q58.0563,552.6969 58.65,552.4313 Q59.2438,552.15 59.8688,551.5719 L59.8688,554.2906 Z " fill="#000000"/><text fill="#000000" font-family="sans-serif" font-size="14" lengthAdjust="spacing" textLength="41" x="77.1" y="553.4967">Room</text><line style="stroke:#181818;stroke-width:0.5;" x1="15" x2="148" y1="564.65" y2="564.65"/><ellipse cx="25" cy="578.2984" fill="none" rx="3" ry="3" style="stroke:#038048;stroke-width:1.0;"/><text fill="#000000" font-family="sans-serif" font-size="14" lengthAdjust="spacing" textLength="64" x="34" y="581.6451">Id : string</text><ellipse cx="25" cy="594.5953" fill="none" rx="3" ry="3" style="stroke:#038048;stroke-width:1.0;"/><text fill="#000000" font-family="sans-serif" font-size="14" lengthAdjust="spacing" textLength="92" x="34" y="597.942">Name : string</text><ellipse cx="25" cy="610.8922" fill="none" rx="3" ry="3" style="stroke:#038048;stroke-width:1.0;"/><text fill="#000000" font-family="sans-serif" font-size="14" lengthAdjust="spacing" textLength="109" x="34" y="614.2389">Address : string</text><ellipse cx="25" cy="627.1891" fill="none" rx="3" ry="3" style="stroke:#038048;stroke-width:1.0;"/><text fill="#000000" font-family="sans-serif" font-size="14" lengthAdjust="spacing" textLength="74" x="34" y="630.5357">Zip : string</text><ellipse cx="25" cy="643.4859" fill="none" rx="3" ry="3" style="stroke:#038048;stroke-width:1.0;"/><text fill="#000000" font-family="sans-serif" font-size="14" lengthAdjust="spacing" textLength="106" x="34" y="646.8326">Country : string</text><line style="stroke:#181818;stroke-width:0.5;" x1="15" x2="148" y1="654.1344" y2="654.1344"/></g><!--class Movie--><g id="elem_Movie"><rect codeLine="12" fill="#F1F1F1" height="129.4844" id="Movie" rx="2.5" ry="2.5" style="stroke:#181818;stroke-width:0.5;" width="157" x="191" y="310.57"/><ellipse cx="245.25" cy="326.57" fill="#ADD1B2" rx="11" ry="11" style="stroke:#181818;stroke-width:1.0;"/><path d="M248.2188,332.2106 Q247.6406,332.5075 247,332.6481 Q246.3594,332.8044 245.6563,332.8044 Q243.1563,332.8044 241.8281,331.1638 Q240.5156,329.5075 240.5156,326.3825 Q240.5156,323.2575 241.8281,321.6013 Q243.1563,319.945 245.6563,319.945 Q246.3594,319.945 247,320.1013 Q247.6563,320.2575 248.2188,320.5544 L248.2188,323.2731 Q247.5938,322.695 247,322.4294 Q246.4063,322.1481 245.7813,322.1481 Q244.4375,322.1481 243.75,323.2263 Q243.0625,324.2888 243.0625,326.3825 Q243.0625,328.4763 243.75,329.5544 Q244.4375,330.6169 245.7813,330.6169 Q246.4063,330.6169 247,330.3513 Q247.5938,330.07 248.2188,329.4919 L248.2188,332.2106 Z " fill="#000000"/><text fill="#000000" font-family="sans-serif" font-size="14" lengthAdjust="spacing" textLength="40" x="265.75" y="331.4167">Movie</text><line style="stroke:#181818;stroke-width:0.5;" x1="192" x2="347" y1="342.57" y2="342.57"/><ellipse cx="202" cy="356.2184" fill="none" rx="3" ry="3" style="stroke:#038048;stroke-width:1.0;"/><text fill="#000000" font-family="sans-serif" font-size="14" lengthAdjust="spacing" textLength="64" x="211" y="359.5651">Id : string</text><ellipse cx="202" cy="372.5153" fill="none" rx="3" ry="3" style="stroke:#038048;stroke-width:1.0;"/><text fill="#000000" font-family="sans-serif" font-size="14" lengthAdjust="spacing" textLength="81" x="211" y="375.862">Title : string</text><ellipse cx="202" cy="388.8122" fill="none" rx="3" ry="3" style="stroke:#038048;stroke-width:1.0;"/><text fill="#000000" font-family="sans-serif" font-size="14" lengthAdjust="spacing" textLength="131" x="211" y="392.1589">Description : string</text><ellipse cx="202" cy="405.1091" fill="none" rx="3" ry="3" style="stroke:#038048;stroke-width:1.0;"/><text fill="#000000" font-family="sans-serif" font-size="14" lengthAdjust="spacing" textLength="102" x="211" y="408.4557">Duration : long</text><ellipse cx="202" cy="421.4059" fill="none" rx="3" ry="3" style="stroke:#038048;stroke-width:1.0;"/><text fill="#000000" font-family="sans-serif" font-size="14" lengthAdjust="spacing" textLength="86" x="211" y="424.7526">Logo : string</text><line style="stroke:#181818;stroke-width:0.5;" x1="192" x2="347" y1="432.0544" y2="432.0544"/></g><!--link Form to Ticket--><g id="link_Form_Ticket"><path codeLine="1" d="M142.29,112.49 C153.84,112.49 165.39,112.49 176.94,112.49 " fill="none" id="Form-Ticket" style="stroke:#181818;stroke-width:1.0;"/><text fill="#000000" font-family="sans-serif" font-size="13" lengthAdjust="spacing" textLength="8" x="149.897" y="108.6976">1</text><text fill="#000000" font-family="sans-serif" font-size="13" lengthAdjust="spacing" textLength="8" x="160.9856" y="108.9186">1</text></g><!--link Ticket to Schedule--><g id="link_Ticket_Schedule"><path codeLine="2" d="M191.46,218.45 C177.67,237.98 163.33,258.31 149.74,277.58 " fill="none" id="Ticket-Schedule" style="stroke:#181818;stroke-width:1.0;"/><text fill="#000000" font-family="sans-serif" font-size="13" lengthAdjust="spacing" textLength="8" x="178.2167" y="238.1448">1</text><text fill="#000000" font-family="sans-serif" font-size="13" lengthAdjust="spacing" textLength="8" x="146.4576" y="266.9242">1</text></g><!--link Ticket to Seat--><g id="link_Ticket_Seat"><path codeLine="3" d="M339.14,218.45 C360.99,249.59 384.26,282.75 403.68,310.44 " fill="none" id="Ticket-Seat" style="stroke:#181818;stroke-width:1.0;"/><text fill="#000000" font-family="sans-serif" font-size="13" lengthAdjust="spacing" textLength="8" x="335.8189" y="238.1448">1</text><text fill="#000000" font-family="sans-serif" font-size="13" lengthAdjust="spacing" textLength="8" x="390.3403" y="299.5984">1</text></g><!--link Schedule to Room--><g id="link_Schedule_Room"><path codeLine="4" d="M81.5,472.84 C81.5,492.93 81.5,513.64 81.5,532.22 " fill="none" id="Schedule-Room" style="stroke:#181818;stroke-width:1.0;stroke-dasharray:7.0,7.0;"/><text fill="#000000" font-family="sans-serif" font-size="13" lengthAdjust="spacing" textLength="8" x="73.2063" y="492.6252">1</text><text fill="#000000" font-family="sans-serif" font-size="13" lengthAdjust="spacing" textLength="8" x="73.0875" y="521.7994">1</text></g><!--link Schedule to Movie--><g id="link_Schedule_Movie"><path codeLine="5" d="M156.41,375.31 C167.89,375.31 179.38,375.31 190.86,375.31 " fill="none" id="Schedule-Movie" style="stroke:#181818;stroke-width:1.0;"/><text fill="#000000" font-family="sans-serif" font-size="13" lengthAdjust="spacing" textLength="8" x="163.9311" y="371.6688">1</text><text fill="#000000" font-family="sans-serif" font-size="13" lengthAdjust="spacing" textLength="8" x="174.9834" y="371.6682">1</text></g><!--SRC=[TLDDIyGm4BtdLvIzYeBNlMbrGL0HtPEta8pTmJQpJ5DXaVvtyz5KcgOz9FJDcxoNb-H0t5Mxsrrr7SOZgc-m8auHZuKFTG8zj50gWRGYrMFX9aplH5rM2ECB_I088LGh-xuwU0U_edBVrRJuFlaO4ocq9DQJTepUCfecjLadiCGUe5UCPujayih0Se9RIk0pDVJF6oTPluDDrLVPvQ9tMZEulYNwYUSCgMambYzhmJcjBT5xQD1eQNFbHwCBQ61Rx0hi0Xf2nbpHPx02utdifwESUGu9XpvlnrsDpQqK5ow4-iQem2Amnq_4Tg6N1JZTe2tDbEzArpjTWLxP_Qorwu4PZBhKf7EtHxAo3PRpnVHN7W0O3GnR7XqylxhPemVzUnl_0000]--></g></svg>